# xmcd
#
# Track frame offsets: 
#        150
#        11798
#        25060
#        35267
#        49552
#        63891
#        79235
#        89352
#        99058
#        112227
#        122669
#        132720
#        144881
#        154015
#        170530
#        181332
#
# Disc length: 2566 seconds
#
# Revision: 1
# Processed by: cddbd v1.5.2PL0 Copyright (c) Steve Scherf et al.
# Submitted via: ExactAudioCopyFreeDBPlugin 1.0
#
DISCID=ca0a0410
DTITLE=Nat King Cole - Love
DYEAR=2007
DGENRE=Blues
TTITLE0=L-O-V-E
TTITLE1=The Girl From Ipanema
TTITLE2=Three Little Words
TTITLE3=There's Love
TTITLE4=My Kind of Girl
TTITLE5=Thanks to You
TTITLE6=Your Love
TTITLE7=More
TTITLE8=Coquette
TTITLE9=How I'd Love to Love You
TTITLE10=Swiss Retreat
TTITLE11=Marnie
TTITLE12=Silver Bird
TTITLE13=A Rag, a Bone and a Hank of Hair
TTITLE14=My True Carrie, Love
TTITLE15=More and More of Your Amor
EXTD=YEAR: 2007
EXTT0=
EXTT1=
EXTT2=
EXTT3=
EXTT4=
EXTT5=
EXTT6=
EXTT7=
EXTT8=
EXTT9=
EXTT10=
EXTT11=
EXTT12=
EXTT13=
EXTT14=
EXTT15=
PLAYORDER=
